<svg xmlns="http://www.w3.org/2000/svg" viewBox="0 0 100 100">
  <!-- Background -->
  <rect fill="#1c1917" width="100" height="100"/>
  
  <!-- Piano Keys (White) -->
  <g fill="#ffffff">
    <rect x="10" y="20" width="8" height="50" rx="2"/>
    <rect x="22" y="20" width="8" height="50" rx="2"/>
    <rect x="34" y="20" width="8" height="50" rx="2"/>
    <rect x="46" y="20" width="8" height="50" rx="2"/>
    <rect x="58" y="20" width="8" height="50" rx="2"/>
    <rect x="70" y="20" width="8" height="50" rx="2"/>
    <rect x="82" y="20" width="8" height="50" rx="2"/>
  </g>
  
  <!-- Piano Keys (Black) -->
  <g fill="#1c1917">
    <rect x="16" y="15" width="6" height="30" rx="2"/>
    <rect x="28" y="15" width="6" height="30" rx="2"/>
    <rect x="52" y="15" width="6" height="30" rx="2"/>
    <rect x="64" y="15" width="6" height="30" rx="2"/>
    <rect x="76" y="15" width="6" height="30" rx="2"/>
  </g>
  
  <!-- Initials -->
  <text x="50" y="85" font-family="serif" font-size="14" font-style="italic" fill="#ffffff" text-anchor="middle">AB</text>
</svg>
